<?xml version="1.0" standalone="no"?>
<!DOCTYPE svg PUBLIC "-//W3C//DTD SVG 20010904//EN"
 "http://www.w3.org/TR/2001/REC-SVG-20010904/DTD/svg10.dtd">
<svg version="1.0" xmlns="http://www.w3.org/2000/svg"
 width="500.000000pt" height="500.000000pt" viewBox="0 0 500.000000 500.000000"
 preserveAspectRatio="xMidYMid meet">

<g transform="translate(0.000000,500.000000) scale(0.100000,-0.100000)"
fill="#000000" stroke="none">
<path d="M2428 3835 c-51 -34 -78 -84 -86 -156 l-7 -62 -80 -22 c-114 -32
-179 -58 -269 -110 l-80 -45 -25 23 c-69 63 -75 67 -95 61 -32 -10 -54 -23
-38 -24 16 0 224 -197 234 -221 9 -24 -19 -59 -48 -59 -15 0 -45 20 -84 55
-33 30 -62 55 -66 55 -13 0 -44 -22 -44 -31 0 -6 -18 -32 -41 -57 -65 -74
-156 -219 -191 -304 -35 -86 -49 -94 -110 -62 -27 14 -30 19 -24 52 7 48 73
183 127 263 24 35 74 96 110 134 36 39 69 82 72 97 4 14 10 34 14 44 7 19
-110 -70 -141 -108 -11 -13 -54 -62 -95 -109 -49 -55 -94 -119 -125 -180 -27
-53 -64 -107 -83 -124 -50 -43 -65 -125 -56 -300 5 -111 9 -132 25 -143 24
-18 23 -57 -3 -83 -19 -19 -21 -34 -23 -137 l-1 -116 -60 -30 c-95 -49 -96
-54 -93 -341 4 -352 -13 -335 358 -347 303 -9 368 -17 383 -43 6 -11 28 -38
49 -60 l38 -40 31 33 30 34 77 -40 c86 -45 211 -87 320 -108 88 -17 92 -19 92
-47 0 -12 4 -28 9 -36 8 -13 12 -13 26 -1 15 12 16 28 12 106 -2 51 -8 97 -11
103 -12 19 -25 12 -28 -17 -3 -26 -5 -27 -63 -26 -33 0 -94 11 -135 23 -71 22
-204 82 -225 102 -16 15 291 11 378 -6 99 -19 160 -19 267 0 52 9 147 15 245
15 l160 0 -45 -29 c-67 -42 -173 -81 -274 -101 -96 -20 -126 -15 -126 19 0 10
-9 21 -20 24 -19 5 -20 0 -20 -103 0 -89 3 -109 16 -114 9 -3 17 -6 19 -6 1 0
5 18 9 40 3 22 10 40 15 40 5 0 47 7 94 15 102 18 250 69 327 113 l55 31 33
-32 33 -32 44 48 44 47 68 0 c38 0 127 9 198 20 72 11 191 23 265 26 226 9
257 32 244 182 -4 42 -11 80 -16 83 -4 3 -3 40 3 85 15 107 3 251 -21 264 -9
5 -23 24 -30 42 -19 46 -38 66 -71 73 -54 12 -81 96 -58 175 12 41 12 43 -14
62 -36 26 -37 71 -2 94 20 13 23 19 14 36 -10 19 -8 80 7 161 8 50 -14 111
-77 205 -55 81 -112 199 -103 213 7 12 -55 111 -112 176 -37 43 -194 173 -208
173 -2 0 0 -16 4 -35 5 -24 31 -60 80 -111 106 -112 213 -290 235 -391 6 -29
3 -34 -27 -53 -55 -33 -65 -28 -103 56 -47 103 -97 184 -170 274 -34 42 -64
84 -68 93 -14 36 -37 30 -103 -27 -67 -57 -106 -70 -132 -44 -28 28 -11 54 95
153 58 55 114 105 125 110 16 10 15 12 -17 24 -36 13 -37 12 -86 -34 l-50 -47
-37 22 c-105 63 -146 82 -243 114 -59 20 -118 36 -132 36 -23 0 -25 4 -32 65
-15 148 -151 232 -257 160z m155 -55 c42 -36 57 -86 57 -181 -1 -121 -47 -193
-125 -193 -46 0 -84 29 -107 81 -28 64 -23 212 10 264 40 66 110 78 165 29z
m-234 -272 c6 -28 8 -55 4 -58 -5 -4 -30 -13 -58 -19 -27 -7 -88 -28 -134 -48
l-84 -36 -33 38 c-18 22 -30 43 -28 47 17 27 217 107 315 127 3 0 11 -22 18
-51z m453 26 c93 -30 187 -74 208 -99 11 -13 9 -20 -16 -48 -16 -17 -30 -34
-31 -36 -1 -2 -39 13 -85 32 -81 34 -125 49 -181 61 -26 6 -27 9 -22 44 15 85
9 83 127 46z m-94 -206 c9 -9 12 -154 12 -590 l0 -578 -40 0 -40 0 0 583 c0
321 3 587 7 590 11 11 48 8 61 -5z m-258 -33 c0 -8 -11 -17 -25 -21 -26 -7
-33 -27 -37 -119 l-3 -50 -50 -3 c-64 -4 -93 -29 -97 -86 -3 -39 -4 -41 -45
-48 -71 -12 -79 -20 -96 -100 -9 -40 -19 -94 -22 -121 -5 -39 -11 -50 -35 -62
-16 -8 -44 -15 -63 -15 -62 0 -72 -16 -75 -129 l-4 -101 -28 0 c-80 0 -120
-33 -120 -99 0 -29 -2 -30 -32 -24 -18 3 -36 11 -40 17 -21 31 8 237 52 368
71 212 217 399 397 507 118 71 323 125 323 86z m385 -50 c85 -37 197 -119 274
-200 80 -84 160 -210 143 -227 -7 -7 0 -41 24 -112 46 -132 66 -226 50 -231
-53 -16 -88 -15 -113 4 -14 12 -39 21 -54 21 -27 0 -29 3 -29 40 0 22 -6 56
-14 75 -12 28 -21 35 -53 40 -21 3 -51 9 -68 13 l-30 8 -5 147 c-6 172 -8 176
-97 186 l-58 6 -3 100 c-2 83 -6 103 -22 121 -11 11 -17 24 -13 27 9 9 5 10
68 -18z m-1004 -14 c16 -16 29 -37 29 -46 0 -9 -21 -41 -48 -70 -104 -117
-196 -310 -232 -485 l-17 -85 -38 -3 -38 -3 5 103 c8 157 73 335 177 478 41
56 115 140 124 140 5 0 22 -13 38 -29z m1469 -28 c70 -76 125 -160 170 -257
52 -111 72 -194 74 -306 l1 -95 -36 -3 -36 -3 -7 50 c-26 193 -118 387 -267
563 l-32 37 29 35 c16 19 34 35 40 35 7 1 35 -24 64 -56z m-755 -523 l0 -515
-37 -3 -38 -3 0 521 0 521 38 -3 37 -3 0 -515z m-167 -78 l2 -443 -37 3 -38 3
-3 420 c-1 231 0 430 3 443 5 19 11 23 38 20 l32 -3 3 -443z m504 356 c2 -7 3
-92 2 -188 -1 -96 -2 -273 -3 -393 l-1 -218 -37 3 -38 3 -3 380 c-1 209 0 390
3 403 4 17 12 22 39 22 19 0 36 -6 38 -12z m-667 -453 l0 -340 -37 -3 -38 -3
0 339 c0 186 3 342 7 346 4 4 21 6 38 4 l30 -3 0 -340z m-813 295 c24 -30 25
-100 1 -100 -38 0 -136 29 -144 41 -13 20 -11 63 4 78 21 21 117 9 139 -19z
m2389 7 c15 -34 -4 -75 -38 -83 -15 -3 -52 -12 -80 -19 l-53 -13 0 40 c0 73
27 96 113 97 40 1 49 -3 58 -22z m-2402 -193 l31 -7 -2 -186 -3 -186 -60 0
-60 0 -3 193 -2 192 34 0 c18 0 48 -3 65 -6z m2361 -183 c0 -208 2 -201 -65
-201 -67 0 -65 -7 -65 195 0 208 -8 191 88 194 l42 1 0 -189z m-1695 -81 l0
-185 -37 -3 -38 -3 0 191 0 191 38 -3 37 -3 0 -185z m990 0 l0 -185 -37 -3
-38 -3 0 191 0 191 38 -3 37 -3 0 -185z m139 104 c14 -5 16 -28 16 -150 l0
-144 -35 0 -35 0 0 144 c0 141 2 152 32 155 3 1 13 -2 22 -5z m-1624 -69 c0
-22 -4 -25 -35 -25 -31 0 -35 3 -35 25 0 22 4 25 35 25 31 0 35 -3 35 -25z
m1800 -21 l0 -45 -37 3 c-38 3 -40 8 -34 78 1 6 17 10 36 10 35 0 35 0 35 -46z
m188 24 c-2 -19 -10 -24 -40 -26 -35 -3 -38 -1 -38 22 0 24 4 26 41 26 36 0
40 -2 37 -22z m-1653 -113 l0 -110 -35 0 -35 0 -3 99 c-1 55 0 106 3 113 3 9
17 13 37 11 l33 -3 0 -110z m-147 -69 c-3 -40 -4 -41 -38 -41 -33 0 -35 2 -38
39 -4 45 6 54 49 48 28 -4 30 -7 27 -46z m1612 -1 c0 -45 0 -45 -34 -45 -42 0
-50 11 -42 56 6 31 10 34 41 34 35 0 35 0 35 -45z m-1790 11 c0 -44 -10 -56
-46 -56 -33 0 -34 1 -34 40 l0 40 40 0 c36 0 40 -3 40 -24z m1978 -13 c-3 -36
-5 -38 -40 -41 l-38 -3 0 40 0 41 41 0 40 0 -3 -37z m-2159 -149 c26 -6 31
-10 25 -28 -12 -44 -51 -66 -113 -66 -41 0 -62 -5 -72 -16 -19 -23 -4 -41 77
-97 101 -69 114 -87 114 -155 0 -75 -25 -117 -77 -131 -30 -7 -154 -9 -207 -2
-12 1 3 53 21 74 12 13 32 17 79 17 66 0 98 17 92 49 -2 9 -41 41 -87 72 -47
31 -91 65 -98 75 -18 24 -17 128 2 164 9 18 26 32 43 36 15 3 32 7 37 9 18 6
132 5 164 -1z m266 -8 c57 -24 65 -53 65 -242 0 -150 -2 -170 -20 -199 -46
-74 -185 -72 -224 4 -23 44 -23 348 0 392 27 53 109 74 179 45z m171 4 l24 0
2 -192 3 -193 25 0 25 0 3 193 2 192 45 0 45 0 0 -207 c0 -189 -2 -211 -20
-240 -43 -71 -166 -67 -202 7 -15 30 -18 65 -18 236 0 110 3 204 7 208 4 3 13
4 21 1 7 -3 24 -5 38 -5z m301 -3 c0 -1 16 -47 35 -102 l33 -100 5 105 5 105
40 0 40 0 3 -244 c2 -168 -1 -247 -8 -251 -6 -4 -23 -7 -38 -6 -25 1 -28 7
-45 71 -10 39 -28 106 -40 150 l-22 80 -5 -150 -5 -150 -35 0 -35 0 -6 95 c-4
52 -7 159 -8 237 -1 119 2 144 15 158 12 11 25 14 43 10 14 -4 27 -7 28 -8z
m405 -27 c34 -36 42 -97 36 -268 -6 -176 -16 -189 -153 -194 l-80 -3 -3 247
-2 247 42 4 c83 7 131 -3 160 -33z m278 -12 c0 -47 -1 -48 -30 -48 l-30 0 -2
-202 -3 -203 -35 0 -35 0 -5 200 -5 200 -32 3 c-32 3 -33 5 -33 47 0 51 1 52
128 51 l82 0 0 -48z m226 28 c61 -41 73 -180 20 -235 l-26 -27 29 -104 c17
-57 28 -106 26 -110 -2 -4 -14 -6 -27 -4 -13 1 -30 3 -39 3 -12 1 -24 28 -45
96 -15 52 -32 95 -36 95 -4 0 -9 -44 -10 -97 l-3 -98 -35 0 -35 0 -3 244 c-2
189 1 247 10 253 21 15 144 3 174 -16z m289 10 c61 -26 64 -38 66 -269 0 -114
0 -210 -2 -212 -2 -2 -20 -5 -39 -7 -33 -3 -35 -1 -38 30 -3 31 -5 32 -48 32
-42 0 -44 -1 -44 -30 0 -29 -5 -32 -45 -32 -47 0 -45 -10 -45 207 0 221 5 250
52 272 54 27 94 29 143 9z m333 -38 l3 -48 -50 0 c-77 0 -81 -8 -81 -160 0
-147 1 -150 84 -150 l46 0 0 -44 c0 -49 -9 -56 -68 -55 -59 0 -104 21 -129 58
-22 32 -23 44 -23 196 0 152 1 164 23 196 27 41 74 59 142 56 l50 -2 3 -47z
m124 -48 l3 -95 33 92 c21 58 40 94 50 97 17 5 71 1 77 -6 2 -2 -17 -52 -41
-113 -24 -60 -44 -116 -44 -125 1 -8 21 -67 45 -130 24 -63 43 -115 41 -117
-7 -7 -73 -11 -82 -5 -6 4 -21 36 -33 72 -45 125 -45 125 -51 20 l-5 -95 -35
0 -35 0 -3 251 -2 251 39 -1 40 -1 3 -95z"/>
<path d="M2455 3717 c-11 -28 0 -220 13 -225 15 -5 18 223 2 233 -6 3 -13 0
-15 -8z"/>
<path d="M2550 3610 c0 -93 3 -121 13 -117 9 3 12 35 12 117 0 82 -3 114 -12
118 -10 3 -13 -25 -13 -118z"/>
<path d="M1561 1946 c-8 -9 -11 -57 -9 -146 3 -114 6 -134 21 -144 12 -8 22
-8 35 0 14 10 17 30 20 144 3 137 -3 160 -38 160 -10 0 -23 -6 -29 -14z"/>
<path d="M2422 1808 c3 -147 4 -153 23 -150 11 2 23 9 27 15 12 18 9 246 -2
268 -6 10 -20 19 -31 19 -19 0 -19 -6 -17 -152z"/>
<path d="M2937 1954 c-10 -10 -9 -66 2 -82 11 -18 41 -12 55 10 22 36 -28 100
-57 72z"/>
<path d="M3227 1953 c-19 -18 -5 -33 31 -33 43 0 53 6 45 26 -5 14 -64 20 -76
7z"/>
<path d="M3220 1759 l0 -50 43 3 42 3 3 48 3 47 -45 0 -46 0 0 -51z"/>
</g>
</svg>
